<svg version="1.1" viewBox="0.0 0.0 324.81889763779526 100.0" fill="none" stroke="none" stroke-linecap="square" stroke-miterlimit="10" xmlns:xlink="http://www.w3.org/1999/xlink" xmlns="http://www.w3.org/2000/svg"><clipPath id="p.0"><path d="m0 0l324.8189 0l0 100.0l-324.8189 0l0 -100.0z" clip-rule="nonzero"/></clipPath><g clip-path="url(#p.0)"><path fill="#000000" fill-opacity="0.0" d="m0 0l324.8189 0l0 100.0l-324.8189 0z" fill-rule="evenodd"/><path fill="#000000" fill-opacity="0.0" d="m0 0l334.07874 0l0 100.0l-334.07874 0z" fill-rule="evenodd"/><path fill="#ffffff" d="m65.171875 40.103127l-12.609375 0l0 -5.71875l-4.703125 0l0 32.984375l5.140625 0l0 12.03125l-30.796875 0l0 -12.03125l5.125 0l0 -32.984375l-4.6875 0l0 5.71875l-12.609375 0l0 -17.75l55.140625 0l0 17.75zm2.4927368 39.296875l0 -12.03125l3.671875 0l0 -32.984375l-3.671875 0l0 -12.03125l27.859375 0l0 12.03125l-3.65625 0l0 32.984375l3.65625 0l0 12.03125l-27.859375 0zm30.797775 -12.03125l3.671875 0l0 -32.984375l-3.671875 0l0 -12.03125l32.1875 0q9.453125 0 14.4375 4.078125q5.0 4.0625 5.0 13.15625q0 9.09375 -5.0 13.171875q-4.984375 4.0625 -14.4375 4.0625l-7.984375 0l0 10.546875l7.03125 0l0 12.03125l-31.234375 0l0 -12.03125zm26.6875 -20.96875q4.25 0 4.25 -4.6875l0 -2.640625q0 -2.421875 -1.0625 -3.546875q-1.0625 -1.140625 -3.1875 -1.140625l-2.484375 0l0 12.015625l2.484375 0zm50.16295 34.03125q-7.046875 0 -13.3125 -1.203125q-6.265625 -1.21875 -9.640625 -2.765625l0 -14.515625l16.125 0q0 2.28125 1.03125 3.3125q1.03125 1.015625 3.734375 1.015625q2.28125 0 3.265625 -0.6875q0.984375 -0.703125 0.984375 -2.09375q0 -1.171875 -0.953125 -2.015625q-0.953125 -0.84375 -3.296875 -1.734375l-6.296875 -2.203125q-8.140625 -3.078125 -11.703125 -7.25q-3.546875 -4.1875 -3.546875 -11.296875q0 -8.65625 5.671875 -13.15625q5.6875 -4.515625 18.953125 -4.515625q6.390625 0 12.0 1.28125q5.609375 1.28125 9.046875 3.421875l0 13.125l-14.65625 0q0 -3.671875 -4.546875 -3.671875q-2.203125 0 -3.125 0.546875q-0.90625 0.546875 -0.90625 1.9375q0 1.25 1.0625 1.984375q1.0625 0.734375 3.484375 1.546875l6.375 2.203125q7.765625 2.625 11.328125 6.84375q3.5625 4.21875 3.5625 11.046875q0 9.3125 -6.28125 14.078125q-6.265625 4.765625 -18.359375 4.765625zm26.688705 -1.03125l0 -12.03125l3.671875 0l0 -32.984375l-3.671875 0l0 -12.03125l49.5 0l0 22.140625l-16.4375 0l0 -10.109375l-8.859375 0l0 11.578125l6.453125 0l0 8.359375l-6.453125 0l0 13.046875l8.859375 0l0 -11.578125l16.4375 0l0 23.609375l-49.5 0zm106.98601 -39.296875l-12.609375 0l0 -5.71875l-4.703125 0l0 32.984375l5.140625 0l0 12.03125l-30.796875 0l0 -12.03125l5.125 0l0 -32.984375l-4.6875 0l0 5.71875l-12.609375 0l0 -17.75l55.140625 0l0 17.75z" fill-rule="nonzero"/></g></svg>